Coordinates
version=1
nRows=49
nColumns=12
inDegrees=yes

Units are S.I. units (second, meters, Newtons, ...)
Angles are in degrees

endheader
time	SC_y	SC_z	SC_x	AC_y	AC_z	AC_x	GH_y	GH_z	GH_yy	EL_x	PS_y
       0.0              -24.69           11.4          59.13          37.78         -10.14          17.47         -33.66         -12.26          164.8          100.7          149.6
  0.004927              -24.69           11.4          59.13          37.78         -10.14          17.47         -33.65         -12.24          164.8          100.6          149.6
  0.009855              -24.69           11.4          59.13          37.78         -10.14          17.47         -33.65         -12.23          164.8          100.6          149.5
   0.01478              -24.69           11.4          59.13          37.79         -10.14          17.46         -33.64         -12.22          164.7          100.6          149.5
   0.01971              -24.69           11.4          59.13          37.79         -10.14          17.46         -33.63          -12.2          164.7          100.6          149.5
   0.02464              -24.69           11.4          59.13           37.8         -10.13          17.46         -33.63         -12.19          164.7          100.6          149.5
   0.02956              -24.68           11.4          59.13           37.8         -10.13          17.46         -33.62         -12.17          164.7          100.6          149.5
   0.03449              -24.68          11.41          59.13          37.81         -10.13          17.45         -33.61         -12.15          164.7          100.6          149.5
   0.03942              -24.68          11.41          59.14          37.81         -10.13          17.45          -33.6         -12.13          164.7          100.6          149.5
   0.04435              -24.68          11.41          59.14          37.82         -10.13          17.45         -33.59         -12.11          164.7          100.5          149.4
   0.04927              -24.68          11.41          59.14          37.82         -10.13          17.45         -33.58         -12.09          164.7          100.5          149.4
    0.0542              -24.68          11.42          59.14          37.83         -10.13          17.44         -33.57         -12.07          164.7          100.5          149.4
   0.05913              -24.68          11.42          59.14          37.84         -10.13          17.44         -33.55         -12.04          164.6          100.5          149.4
   0.06406              -24.68          11.42          59.14          37.85         -10.13          17.44         -33.54         -12.02          164.6          100.5          149.4
   0.06898              -24.68          11.42          59.15          37.86         -10.12          17.43         -33.52         -11.99          164.6          100.4          149.3
   0.07391              -24.68          11.43          59.15          37.87         -10.12          17.43         -33.51         -11.96          164.6          100.4          149.3
   0.07884              -24.68          11.43          59.15          37.88         -10.12          17.42         -33.49         -11.92          164.6          100.4          149.3
   0.08376              -24.67          11.44          59.16          37.89         -10.12          17.42         -33.47         -11.88          164.5          100.4          149.2
   0.08869              -24.67          11.44          59.16           37.9         -10.12          17.41         -33.45         -11.84          164.5          100.3          149.2
   0.09362              -24.67          11.45          59.16          37.91         -10.11          17.41         -33.43          -11.8          164.5          100.3          149.2
   0.09855              -24.67          11.45          59.17          37.93         -10.11           17.4          -33.4         -11.75          164.5          100.3          149.1
    0.1035              -24.67          11.46          59.17          37.95         -10.11          17.39         -33.37         -11.69          164.4          100.2          149.1
    0.1084              -24.67          11.46          59.18          37.96         -10.11          17.38         -33.34         -11.63          164.4          100.2          149.0
    0.1133              -24.66          11.47          59.18          37.98          -10.1          17.38         -33.31         -11.57          164.3          100.1          149.0
    0.1183              -24.66          11.48          59.19          38.01          -10.1          17.37         -33.27         -11.49          164.3          100.0          148.9
    0.1232              -24.66          11.49          59.19          38.03         -10.09          17.35         -33.23         -11.41          164.2          99.98          148.8
    0.1281              -24.66           11.5           59.2          38.06         -10.09          17.34         -33.18         -11.32          164.2          99.91          148.8
     0.133              -24.65          11.51          59.21          38.09         -10.08          17.33         -33.13         -11.21          164.1          99.82          148.7
     0.138              -24.65          11.52          59.22          38.12         -10.08          17.31         -33.07          -11.1          164.0          99.73          148.6
    0.1429              -24.64          11.54          59.23          38.17         -10.07          17.29          -33.0         -10.96          164.0          99.62          148.5
    0.1478              -24.64          11.55          59.24          38.21         -10.06          17.27         -32.92         -10.81          163.9           99.5          148.3
    0.1527              -24.63          11.57          59.26          38.26         -10.05          17.25         -32.83         -10.64          163.8          99.36          148.2
    0.1577              -24.62          11.59          59.27          38.32         -10.04          17.22         -32.73         -10.43          163.6           99.2          148.0
    0.1626              -24.62          11.62          59.29           38.4         -10.03          17.19         -32.61          -10.2          163.5          99.01          147.8
    0.1675              -24.61          11.65          59.31          38.48         -10.02          17.15         -32.47         -9.924          163.3          98.79          147.6
    0.1725               -24.6          11.69          59.34          38.58          -10.0          17.11         -32.31           -9.6          163.1          98.53          147.3
    0.1774              -24.58          11.73          59.37          38.69         -9.981          17.06         -32.11         -9.215          162.9          98.22          146.9
    0.1823              -24.57          11.78          59.41          38.83         -9.957           17.0         -31.88         -8.754          162.6          97.85          146.5
    0.1872              -24.55          11.84          59.45           39.0         -9.928          16.92         -31.59         -8.196          162.2          97.41          146.1
    0.1922              -24.52          11.91           59.5           39.2         -9.892          16.83         -31.24         -7.515          161.8          96.86          145.5
    0.1971              -24.49           12.0          59.57          39.46         -9.849          16.72         -30.81         -6.673          161.3          96.19          144.7
     0.202              -24.46          12.12          59.65          39.77         -9.794          16.57         -30.28         -5.624          160.6          95.35          143.8
    0.2069              -24.41          12.26          59.76          40.17         -9.726           16.4         -29.61         -4.303          159.8          94.29          142.7
    0.2119              -24.35          12.45          59.89          40.68         -9.639          16.17         -28.75         -2.623          158.8          92.94          141.2
    0.2168              -24.28          12.68          60.07          41.32         -9.527          15.88         -27.65        -0.4731          157.4          91.22          139.4
    0.2217              -24.18          12.98          60.29          42.15         -9.384          15.51         -26.25          2.286          155.7          89.01          137.0
    0.2267              -24.06          13.37          60.57          43.21         -9.201          15.03         -24.45          5.811          153.5          86.19          133.9
    0.2316              -23.91          13.85          60.92          44.55         -8.971          14.44         -22.19          10.24          150.7          82.64          130.1
    0.2365              -23.72          14.44          61.35          46.17         -8.691          13.71         -19.43          15.64          147.4          78.32          125.4
